<?xml version="1.0" standalone="no"?>
<!DOCTYPE svg PUBLIC "-//W3C//DTD SVG 1.0//EN" "http://www.w3.org/TR/2001/REC-SVG-20010904/DTD/svg10.dtd">
<svg xmlns="http://www.w3.org/2000/svg" viewBox="0 0 539 165.73" xmlns:inkscape ="http://www.inkscape.org/namespaces/inkscape" >
<desc>CopyRight:SVG Design Editor;
configurationStart;Unit=smInches;Dpi=96;Division=4;Grid=True;Zoom=1;CanvasW=539;CanvasH=165.73;configurationEnd;</desc>
<title xmlns:inkscape ="http://www.inkscape.org/namespaces/inkscape" >
Fortescue logo - Brandlogos.net</title>
<g isVisble = "True" inkscape:label = "fortescue_logo_dark Default Layer" inkscape:groupmode = "layer" ><path style="fill:Lime;stroke:none; stroke-width:1" d="m197.34,301.13a82.87 82.87,0 1,0 82.84,82.87a83 83,0 0,0 -82.84,-82.87zm0,132.59a49.69 49.69,0 1,1 49.66,-49.72a49.76 49.76,0 0,1 -49.66,49.72z" transform = "matrix(1,0,0,1,-114.5,-301.13)" vector-effect="non-scaling-stroke" pen = "1,1" />
<polygon style="fill:#FFFFFF;stroke:none; stroke-width:1" points="188.47,105.93 188.47,51.45 224.84,51.45 224.84,59.98 198.06,59.98 198.06,74.77 220.51,74.77 220.51,83.25 198.06,83.25 198.06,105.93 188.47,105.93" transform = "matrix(1,0,0,1,0,0)" vector-effect="non-scaling-stroke" pen = "1,1" ShapeName="polygon" />
<path style="fill:#FFFFFF;stroke:none; stroke-width:1" d="m407.21,375.9a19.87 19.87,0 0,0 -3.33,-0.23c-5.79,0 -10.17,3.74 -10.17,10.11l0,20.93l-9.12,0l0,-39.87l9.12,0l0,5.9c1.75,-3.74 5.85,-6.14 10.93,-6.14a15.64 15.64,0 0,1 2.57,0.18l0,9.12z" transform = "matrix(1,0,0,1,-114.5,-301.13)" vector-effect="non-scaling-stroke" pen = "1,1" />
<path style="fill:#FFFFFF;stroke:none; stroke-width:1" d="m417.67,374.56l-5.55,0l0,-7.72l5.55,0l0,-11.69l8.94,0l0,11.69l8.39,0l0,7.72l-8.36,0l0,20.69c0,3.57 2,4 5.32,4a25.72 25.72,0 0,0 3.74,-0.23l0,7.66a38.1 38.1,0 0,1 -6.31,0.53c-7.6,0 -11.69,-2.34 -11.69,-10.46l-0.03,-22.19z" transform = "matrix(1,0,0,1,-114.5,-301.13)" vector-effect="non-scaling-stroke" pen = "1,1" />
<path style="fill:#FFFFFF;stroke:none; stroke-width:1" d="m447.72,381.92l18.28,0c-0.06,-4.38 -2.81,-8.18 -8.59,-8.18c-4.68,0 -8.3,2.81 -9.7,8.18m-9.18,4.85c0,-11.69 7.89,-20.69 19,-20.69c11.52,0 17.65,8.71 17.65,19.64l0,3l-27.93,0c0.7,6.84 4.79,11 10.64,11c4.5,0 8.07,-2.28 9.24,-6.37l7.83,3c-2.81,7 -9.12,11.17 -17.07,11.17c-11.4,0 -19.35,-8.42 -19.35,-20.75" transform = "matrix(1,0,0,1,-114.5,-301.13)" vector-effect="non-scaling-stroke" pen = "1,1" />
<path style="fill:#FFFFFF;stroke:none; stroke-width:1" d="m485.19,393.62a13.78 13.78,0 0,0 11.52,6.38c3.86,0 7.42,-1.34 7.42,-4.91c0,-3.39 -3.33,-3.8 -9.65,-5.09s-13.5,-2.86 -13.5,-11.4c0,-7.31 6.37,-12.63 15.55,-12.63c7,0 13.21,3.1 16.08,7.54l-6.14,5.55a12.13 12.13,0 0,0 -10.47,-5.55c-3.74,0 -6.14,1.7 -6.14,4.33c0,2.86 2.86,3.39 7.89,4.5c6.78,1.46 15.26,2.86 15.26,12c0,8.07 -7.37,13.21 -16.37,13.21c-7.37,0 -14.73,-3 -18.3,-8.42l6.85,-5.51z" transform = "matrix(1,0,0,1,-114.5,-301.13)" vector-effect="non-scaling-stroke" pen = "1,1" />
<path style="fill:#FFFFFF;stroke:none; stroke-width:1" d="m594.75,406.71l-9.12,0l0,-4.27a13.83 13.83,0 0,1 -10.87,5.09c-8.36,0 -13.5,-5.67 -13.5,-14.26l0,-26.43l9.12,0l0,24.44c0,4.85 2.1,8 7.07,8c4.09,0 8.18,-3 8.18,-8.71l0,-23.73l9.12,0l0,39.87z" transform = "matrix(1,0,0,1,-114.5,-301.13)" vector-effect="non-scaling-stroke" pen = "1,1" />
<path style="fill:#FFFFFF;stroke:none; stroke-width:1" d="m610.59,381.92l18.3,0c-0.06,-4.38 -2.81,-8.18 -8.59,-8.18c-4.68,0 -8.36,2.81 -9.7,8.18m-9.18,4.85c0,-11.69 7.89,-20.69 19,-20.69c11.52,0 17.65,8.71 17.65,19.64l0,3l-27.95,0c0.7,6.84 4.79,11 10.64,11c4.5,0 8.07,-2.28 9.24,-6.37l7.83,3c-2.81,7 -9.12,11.17 -17.07,11.17c-11.4,0 -19.35,-8.42 -19.35,-20.75" transform = "matrix(1,0,0,1,-114.5,-302.13)" vector-effect="non-scaling-stroke" pen = "1,1" />
<path style="fill:#FFFFFF;stroke:none; stroke-width:1" d="m359.56,375a11.93 11.93,0 1,0 12,11.93a12 12,0 0,0 -12,-11.93m0,32.56a20.64 20.64,0 1,1 20.75,-20.64a20.7 20.7,0 0,1 -20.75,20.64" transform = "matrix(1,0,0,1,-114.5,-301.13)" vector-effect="non-scaling-stroke" pen = "1,1" />
<path style="fill:#FFFFFF;stroke:none; stroke-width:1" d="m537.92,398.76a11.93 11.93,0 1,1 0,-23.85a12.22 12.22,0 0,1 9.59,4.68c0.06,0.06 0.12,0.18 0.18,0.23l7.6,-4.33a3.25 3.25,0 0,0 -0.35,-0.47a20.61 20.61,0 1,0 0.94,22.21l-7.78,-3.92a12.3 12.3,0 0,1 -10.17,5.44" transform = "matrix(1,0,0,1,-114.5,-301.13)" vector-effect="non-scaling-stroke" pen = "1,1" />
<path style="fill:#001D44;stroke:none; stroke-width:1" d="m643.62,400.81l0,5.61l-1.4,0l0,-5.61l-2.16,0l0,-1.23l5.73,0l0,1.23l-2.17,0z" transform = "matrix(1,0,0,1,-114.5,-301.13)" vector-effect="non-scaling-stroke" pen = "1,1" />
<path style="fill:#001D44;stroke:none; stroke-width:1" d="m649.47,406.48l-1.64,-5l0,5l-1.34,0l0,-6.84l1.93,0l1.58,4.85l1.58,-4.85l1.93,0l0,6.84l-1.34,0l0,-5l-1.64,5l-1.06,0z" transform = "matrix(1,0,0,1,-114.5,-301.13)" vector-effect="non-scaling-stroke" pen = "1,1" />
</g>
</svg>
